<svg xmlns="http://www.w3.org/2000/svg" width="52.933" height="53.342" viewBox="0 0 52.933 53.342" fill="none">
  <path d="M 26.468 0.002 C 11.85 0.002 0 11.942 0 26.672 C 0 41.401 11.85 53.342 26.468 53.342 C 31.19 53.342 35.625 52.094 39.464 49.909 C 37.567 49.104 35.815 47.913 34.29 46.369 C 30.32 42.359 28.152 36.273 28.339 29.67 C 28.339 29.637 28.345 29.603 28.352 29.57 C 28.132 29.741 27.999 30.023 27.893 30.342 C 27.723 30.866 27.573 31.398 27.408 31.926 C 27.104 32.912 26.775 33.889 26.494 34.882 C 26.354 35.375 26.288 35.892 26.202 36.396 C 26.156 36.668 26.176 36.954 26.103 37.215 C 25.704 38.717 25.304 40.218 24.865 41.707 C 24.691 42.301 24.452 42.878 24.193 43.439 C 23.567 44.802 22.561 45.334 21.173 44.966 C 19.574 44.547 18.113 43.762 16.758 42.819 C 15.882 42.211 15.716 41.145 15.906 40.108 C 16.099 39.035 16.625 38.148 17.367 37.33 C 18.585 35.98 19.948 34.837 21.412 33.806 C 21.605 33.671 21.785 33.515 21.959 33.353 C 22.991 32.373 24.052 31.423 25.032 30.394 C 25.585 29.81 26.014 29.099 26.476 28.43 C 26.726 28.071 26.803 27.675 26.516 27.279 C 26.209 26.856 25.783 26.57 25.307 26.742 C 24.629 26.986 23.902 27.252 23.372 27.725 C 22.629 28.385 21.856 28.919 20.968 29.355 C 20.103 29.778 19.343 30.425 18.518 30.943 C 17.182 31.784 15.851 32.65 14.472 33.408 C 13.746 33.808 12.907 33.979 12.141 34.31 C 10.496 35.022 8.794 35.095 7.05 34.924 C 5.944 34.816 4.729 33.841 4.394 32.756 C 3.988 31.44 4.286 30.146 4.466 28.848 C 4.539 28.337 4.712 27.841 4.816 27.334 C 4.94 26.727 5.275 26.347 5.865 26.227 C 6.189 26.164 6.517 26.106 6.847 26.073 C 7.143 26.039 7.453 26.089 7.742 26.02 C 10.186 25.449 12.633 25.654 15.098 25.815 C 17.486 25.97 19.9 26.109 22.254 25.456 C 22.92 25.271 23.58 24.996 24.189 24.654 C 24.822 24.301 24.795 23.657 24.16 23.291 C 23.787 23.08 23.361 22.938 22.941 22.845 C 20.757 22.353 18.556 22.02 16.312 21.987 C 15.014 21.967 13.705 21.973 12.427 21.775 C 11.527 21.634 10.622 21.268 9.813 20.825 C 8.637 20.185 8.385 19.413 8.594 18.05 C 8.687 17.44 8.745 16.822 8.748 16.205 C 8.764 14.753 9.884 13.495 11.269 13.337 C 12.638 13.182 13.84 13.598 14.938 14.397 C 16.766 15.723 18.6 17.047 20.395 18.426 C 21.84 19.534 23.222 20.73 24.644 21.868 C 24.876 22.053 25.157 22.211 25.439 22.281 C 25.959 22.409 26.288 21.997 26.075 21.482 C 25.961 21.201 25.783 20.935 25.586 20.704 C 24.947 19.952 24.237 19.261 23.641 18.473 C 22.986 17.608 22.419 16.664 21.82 15.754 C 21.557 15.355 21.358 14.896 21.037 14.556 C 20.275 13.751 19.989 12.728 19.692 11.698 C 19.541 11.18 19.639 10.655 20.058 10.389 C 21.178 9.67 22.122 8.617 23.494 8.345 C 24.44 8.161 25.368 8.302 26.212 8.708 C 27.094 9.131 27.568 9.939 27.512 10.979 C 27.429 12.496 27.375 14.025 27.178 15.53 C 26.965 17.157 27.355 18.619 28.004 20.048 C 28.089 20.23 28.223 20.401 28.367 20.541 C 28.793 20.95 29.202 20.877 29.346 20.306 C 29.729 18.807 30.565 17.551 31.248 16.207 C 31.747 15.23 32.211 14.23 32.614 13.207 C 33.14 11.868 33.986 10.765 34.848 9.666 C 35.224 9.184 35.736 8.961 36.339 8.941 C 37.475 8.908 38.599 8.861 39.653 9.462 C 40.052 9.69 40.531 9.766 40.972 9.914 C 41.418 10.066 41.875 10.179 42.294 10.38 C 43.087 10.76 43.709 11.324 43.785 12.303 C 43.868 13.347 43.406 14.169 42.56 14.626 C 41.627 15.13 40.632 15.583 39.613 15.844 C 38.067 16.24 36.646 16.794 35.394 17.85 C 34.575 18.548 33.665 19.135 32.761 19.712 C 31.679 20.409 30.849 21.293 30.462 22.645 C 30.895 23.111 31.451 23.15 31.994 22.948 C 33.406 22.431 34.788 21.83 36.203 21.318 C 37.11 20.992 38.048 20.747 38.984 20.509 C 39.95 20.261 40.942 20.103 41.905 19.832 C 43.14 19.486 44.385 19.356 45.658 19.343 C 48.042 19.316 48.818 20.93 48.734 23.091 C 48.724 23.296 48.613 23.501 48.62 23.702 C 48.676 25.229 47.794 25.95 46.536 26.346 C 44.662 26.936 42.74 27.138 40.805 26.883 C 39.59 26.722 38.384 26.417 37.189 26.118 C 35.178 25.614 33.173 25.534 31.156 26.038 C 30.857 26.114 30.579 26.272 30.236 26.417 C 30.593 27.121 31.131 27.292 31.658 27.467 C 32.767 27.833 33.875 28.199 34.988 28.553 C 36.783 29.121 38.467 29.959 40.083 30.926 C 41.026 31.493 41.967 32.117 42.537 33.157 C 43.143 34.253 42.92 34.942 41.834 35.49 C 40.159 36.338 38.487 37.19 36.842 38.097 C 35.7 38.727 33.763 38.781 32.526 37.671 C 31.701 36.935 31.573 35.977 31.425 34.984 C 31.342 34.407 31.268 33.819 31.114 33.262 C 30.845 32.302 30.518 31.357 30.215 30.404 C 30.068 29.944 29.888 29.671 29.622 29.522 C 29.638 29.582 29.648 29.64 29.645 29.703 C 29.468 35.947 31.499 41.681 35.213 45.436 C 36.857 47.099 38.789 48.317 40.879 49.043 C 48.135 44.284 52.933 36.044 52.933 26.67 C 52.933 11.941 41.082 0 26.465 0 L 26.468 0.002 Z" fill="currentColor" fill-rule="nonzero"></path>
</svg>