<svg xmlns="http://www.w3.org/2000/svg" width="71.837" height="71.986" viewBox="0 0 71.837 71.986" fill="none">
  <path d="M 35.921 0.002 C 16.083 0.002 0 16.117 0 35.994 C 0 55.871 16.083 71.986 35.921 71.986 C 42.33 71.986 48.349 70.302 53.559 67.354 C 50.984 66.267 48.606 64.659 46.536 62.576 C 41.149 57.165 38.207 48.951 38.46 40.04 C 38.46 39.995 38.469 39.95 38.478 39.905 C 38.18 40.136 37.998 40.516 37.855 40.947 C 37.624 41.654 37.42 42.373 37.196 43.084 C 36.784 44.416 36.338 45.734 35.957 47.074 C 35.766 47.739 35.677 48.437 35.56 49.117 C 35.497 49.483 35.524 49.87 35.426 50.222 C 34.883 52.25 34.341 54.275 33.745 56.284 C 33.51 57.086 33.185 57.865 32.833 58.622 C 31.984 60.461 30.619 61.179 28.734 60.683 C 26.565 60.117 24.582 59.057 22.742 57.784 C 21.555 56.965 21.328 55.525 21.586 54.127 C 21.848 52.678 22.563 51.482 23.569 50.377 C 25.223 48.556 27.072 47.014 29.059 45.622 C 29.322 45.44 29.566 45.229 29.801 45.011 C 31.202 43.688 32.643 42.406 33.971 41.017 C 34.722 40.228 35.305 39.27 35.932 38.367 C 36.27 37.882 36.376 37.348 35.986 36.813 C 35.569 36.243 34.991 35.857 34.346 36.088 C 33.425 36.418 32.439 36.777 31.719 37.415 C 30.711 38.307 29.662 39.027 28.457 39.616 C 27.282 40.186 26.252 41.059 25.131 41.757 C 23.318 42.894 21.512 44.061 19.641 45.085 C 18.655 45.624 17.517 45.855 16.477 46.302 C 14.245 47.263 11.935 47.362 9.568 47.13 C 8.067 46.984 6.418 45.669 5.963 44.205 C 5.412 42.429 5.817 40.682 6.062 38.931 C 6.16 38.241 6.395 37.572 6.537 36.887 C 6.705 36.068 7.16 35.556 7.96 35.394 C 8.399 35.309 8.845 35.23 9.293 35.186 C 9.694 35.141 10.115 35.208 10.507 35.114 C 13.824 34.344 17.145 34.62 20.49 34.838 C 23.731 35.046 27.007 35.235 30.202 34.353 C 31.105 34.103 32.002 33.733 32.829 33.27 C 33.687 32.794 33.651 31.925 32.788 31.431 C 32.282 31.146 31.704 30.956 31.134 30.83 C 28.17 30.165 25.183 29.716 22.137 29.671 C 20.376 29.644 18.599 29.653 16.865 29.386 C 15.643 29.195 14.415 28.701 13.317 28.104 C 11.722 27.24 11.379 26.198 11.664 24.359 C 11.789 23.535 11.868 22.702 11.872 21.869 C 11.894 19.909 13.414 18.211 15.294 17.998 C 17.151 17.789 18.783 18.351 20.273 19.428 C 22.754 21.218 25.243 23.005 27.679 24.866 C 29.64 26.362 31.515 27.976 33.445 29.512 C 33.761 29.761 34.142 29.974 34.525 30.069 C 35.231 30.242 35.677 29.685 35.388 28.991 C 35.233 28.611 34.991 28.252 34.724 27.94 C 33.857 26.925 32.894 25.993 32.085 24.929 C 31.195 23.762 30.426 22.489 29.613 21.26 C 29.257 20.722 28.985 20.102 28.551 19.644 C 27.515 18.557 27.128 17.176 26.724 15.786 C 26.521 15.088 26.653 14.379 27.222 14.019 C 28.741 13.049 30.023 11.628 31.885 11.262 C 33.169 11.013 34.428 11.204 35.574 11.752 C 36.77 12.322 37.413 13.413 37.337 14.817 C 37.225 16.864 37.151 18.928 36.884 20.957 C 36.595 23.153 37.124 25.127 38.005 27.055 C 38.121 27.3 38.303 27.531 38.498 27.72 C 39.076 28.272 39.632 28.174 39.827 27.403 C 40.347 25.381 41.48 23.685 42.408 21.871 C 43.085 20.553 43.715 19.204 44.261 17.823 C 44.976 16.015 46.124 14.527 47.293 13.045 C 47.804 12.394 48.499 12.093 49.317 12.066 C 50.858 12.021 52.384 11.958 53.814 12.769 C 54.356 13.076 55.006 13.18 55.605 13.38 C 56.21 13.584 56.83 13.737 57.399 14.008 C 58.475 14.52 59.32 15.281 59.423 16.604 C 59.535 18.012 58.908 19.121 57.76 19.738 C 56.494 20.418 55.143 21.029 53.76 21.382 C 51.663 21.916 49.734 22.664 48.035 24.089 C 46.923 25.03 45.689 25.823 44.461 26.602 C 42.993 27.543 41.866 28.735 41.342 30.56 C 41.929 31.189 42.684 31.241 43.421 30.969 C 45.337 30.271 47.213 29.46 49.133 28.769 C 50.363 28.329 51.636 27.998 52.907 27.677 C 54.217 27.343 55.564 27.13 56.871 26.764 C 58.547 26.297 60.236 26.121 61.964 26.103 C 65.2 26.068 66.253 28.245 66.139 31.162 C 66.125 31.438 65.975 31.714 65.984 31.986 C 66.06 34.047 64.864 35.019 63.156 35.554 C 60.613 36.351 58.005 36.623 55.378 36.279 C 53.729 36.061 52.093 35.65 50.471 35.246 C 47.741 34.566 45.021 34.458 42.283 35.138 C 41.877 35.242 41.501 35.455 41.035 35.65 C 41.519 36.6 42.249 36.831 42.964 37.067 C 44.47 37.561 45.973 38.055 47.484 38.533 C 49.92 39.299 52.205 40.431 54.399 41.735 C 55.679 42.501 56.956 43.343 57.729 44.746 C 58.551 46.226 58.249 47.155 56.774 47.894 C 54.502 49.039 52.232 50.188 50 51.412 C 48.45 52.263 45.821 52.335 44.143 50.837 C 43.022 49.845 42.85 48.552 42.648 47.211 C 42.536 46.432 42.435 45.64 42.227 44.887 C 41.861 43.592 41.418 42.317 41.005 41.03 C 40.806 40.41 40.562 40.042 40.201 39.84 C 40.223 39.921 40.237 39.999 40.232 40.085 C 39.993 48.511 42.749 56.248 47.788 61.316 C 50.02 63.561 52.642 65.205 55.479 66.184 C 65.325 59.762 71.837 48.641 71.837 35.992 C 71.837 16.114 55.755 0 35.916 0 L 35.921 0.002 Z" fill="currentColor" fill-rule="nonzero"></path>
</svg>