<?xml version="1.0" encoding="UTF-8"?>
<svg id="VERTICAL" xmlns="http://www.w3.org/2000/svg" viewBox="0 0 566.93 566.93">
  <defs>
    <style>
      .cls-1 {
        fill: #f3f0e7;
      }

      .cls-2 {
        fill: #8a124b;
      }
    </style>
  </defs>
  <circle class="cls-1" cx="276.5" cy="216.95" r="132.82"/>
  <g>
    <path class="cls-2" d="M276.5,84.13c-73.35,0-132.82,59.47-132.82,132.82s59.47,132.82,132.82,132.82c23.7,0,45.96-6.21,65.22-17.09-9.52-4.01-18.31-9.94-25.97-17.64-19.92-19.97-30.8-50.28-29.86-83.17,0-.16.03-.33.07-.49-1.1.85-1.78,2.25-2.3,3.85-.85,2.61-1.61,5.26-2.43,7.89-1.53,4.91-3.17,9.78-4.59,14.73-.71,2.45-1.04,5.03-1.46,7.54-.23,1.35-.13,2.78-.49,4.08-2.01,7.48-4.01,14.96-6.21,22.37-.87,2.96-2.07,5.83-3.37,8.63-3.14,6.79-8.19,9.43-15.15,7.61-8.02-2.09-15.35-6-22.16-10.7-4.39-3.02-5.23-8.33-4.27-13.49.97-5.34,3.62-9.76,7.33-13.84,6.11-6.72,12.95-12.41,20.3-17.55.97-.67,1.87-1.45,2.74-2.25,5.18-4.88,10.5-9.62,15.42-14.74,2.78-2.91,4.93-6.44,7.25-9.78,1.25-1.79,1.64-3.76.2-5.74-1.54-2.1-3.68-3.53-6.06-2.68-3.4,1.22-7.05,2.55-9.71,4.9-3.73,3.29-7.61,5.95-12.06,8.12-4.34,2.1-8.15,5.33-12.29,7.91-6.71,4.19-13.38,8.5-20.3,12.28-3.65,1.99-7.86,2.84-11.7,4.49-8.25,3.55-16.8,3.91-25.54,3.06-5.56-.54-11.65-5.39-13.33-10.8-2.04-6.56-.54-13,.36-19.46.36-2.55,1.23-5.01,1.76-7.54.62-3.02,2.3-4.91,5.26-5.51,1.63-.31,3.27-.61,4.93-.77,1.48-.16,3.04.08,4.49-.26,12.26-2.84,24.54-1.82,36.92-1.02,11.98.77,24.1,1.46,35.91-1.79,3.34-.92,6.66-2.28,9.71-3.99,3.17-1.76,3.04-4.96-.15-6.79-1.87-1.05-4.01-1.76-6.11-2.22-10.96-2.45-22.01-4.11-33.27-4.27-6.51-.1-13.08-.07-19.49-1.05-4.52-.71-9.06-2.53-13.12-4.73-5.9-3.19-7.17-7.03-6.11-13.82.46-3.04.76-6.11.77-9.19.08-7.23,5.7-13.49,12.66-14.28,6.87-.77,12.9,1.3,18.41,5.28,9.17,6.61,18.38,13.2,27.38,20.07,7.25,5.52,14.18,11.47,21.32,17.14,1.17.92,2.58,1.71,3.99,2.05,2.61.64,4.26-1.41,3.19-3.98-.58-1.4-1.46-2.73-2.45-3.88-3.21-3.75-6.77-7.18-9.76-11.11-3.29-4.31-6.13-9.01-9.14-13.54-1.31-1.99-2.32-4.27-3.93-5.97-3.83-4.01-5.26-9.11-6.76-14.23-.76-2.58-.26-5.19,1.84-6.53,5.62-3.58,10.35-8.83,17.24-10.17,4.75-.92,9.4-.21,13.64,1.81,4.42,2.1,6.8,6.13,6.53,11.31-.41,7.56-.69,15.17-1.68,22.67-1.07,8.1.89,15.38,4.14,22.5.43.9,1.1,1.76,1.82,2.45,2.14,2.04,4.19,1.68,4.91-1.17,1.92-7.46,6.11-13.72,9.55-20.41,2.5-4.87,4.83-9.85,6.85-14.94,2.65-6.67,6.89-12.16,11.21-17.64,1.89-2.4,4.45-3.52,7.48-3.62,5.7-.16,11.34-.39,16.63,2.6,2.01,1.13,4.4,1.51,6.62,2.25,2.24.76,4.54,1.31,6.64,2.32,3.98,1.89,7.1,4.7,7.48,9.58.41,5.19-1.91,9.29-6.15,11.57-4.68,2.51-9.68,4.77-14.79,6.06-7.76,1.97-14.89,4.73-21.17,9.99-4.11,3.47-8.68,6.39-13.21,9.27-5.42,3.47-9.6,7.87-11.54,14.61,2.17,2.32,4.96,2.51,7.69,1.51,7.08-2.58,14.02-5.57,21.12-8.12,4.55-1.63,9.25-2.84,13.95-4.03,4.85-1.23,9.83-2.02,14.66-3.37,6.2-1.73,12.44-2.37,18.84-2.43,11.97-.13,15.86,7.91,15.43,18.67-.05,1.02-.61,2.04-.58,3.04.28,7.61-4.14,11.19-10.45,13.17-9.4,2.94-19.05,3.94-28.76,2.68-6.1-.81-12.15-2.32-18.15-3.81-10.09-2.51-20.15-2.91-30.28-.39-1.5.38-2.89,1.17-4.62,1.89,1.79,3.5,4.49,4.36,7.13,5.23,5.57,1.82,11.13,3.65,16.72,5.41,9.01,2.83,17.46,7,25.57,11.82,4.73,2.83,9.45,5.93,12.31,11.11,3.04,5.46,1.92,8.89-3.53,11.62-8.4,4.22-16.8,8.46-25.05,12.98-5.74,3.14-15.45,3.4-21.66-2.12-4.14-3.67-4.78-8.43-5.52-13.38-.41-2.88-.79-5.8-1.56-8.58-1.35-4.78-2.99-9.48-4.52-14.23-.74-2.28-1.64-3.65-2.97-4.39.08.3.13.59.12.9-.89,31.1,9.3,59.65,27.94,78.35,8.25,8.28,17.95,14.35,28.43,17.96,36.41-23.7,60.49-64.74,60.49-111.42,0-73.35-59.47-132.82-132.82-132.82Z"/>
    <g>
      <path class="cls-2" d="M91.4,382.83h-16.81v-13.66h52.02v13.66h-16.81v42.57h-18.41v-42.57Z"/>
      <path class="cls-2" d="M187.03,425.41h-20.97c-4.64-11.49-6.4-19.28-13.05-19.28h-2.4v19.28h-17.61v-56.23h22.81c16.57,0,24.01,6.83,24.01,17.19,0,6.35-3.04,11.57-9.76,14.3,7.52,3.29,10.32,11.89,16.97,24.74ZM153.82,394.08c5.6,0,8-2.49,8-6.51s-2.4-6.35-7.6-6.35h-3.6v12.85h3.2Z"/>
      <path class="cls-2" d="M191.83,369.18h18.41v56.23h-18.41v-56.23Z"/>
      <path class="cls-2" d="M220.64,369.18h24.01c17.13,0,24.81,7.55,24.81,19.2s-7.6,19.36-25.21,19.36h-5.2v17.67h-18.41v-56.23ZM242.65,394.88c5.6,0,8-2.49,8-6.51s-2.4-6.35-7.6-6.35h-4v12.85h3.6Z"/>
      <path class="cls-2" d="M276.26,369.18h18.41v56.23h-18.41v-56.23Z"/>
      <path class="cls-2" d="M341.32,416.97h-21.93l-3.44,8.44h-16.49l24.33-56.23h14.57l24.33,56.23h-17.93l-3.44-8.44ZM336.12,404.52l-5.76-14.06-5.76,14.06h11.53Z"/>
      <path class="cls-2" d="M424.31,369.18v56.23h-14.81l-26.01-29.8v29.8h-16.01v-56.23h15.21l25.61,29.32v-29.32h16.01Z"/>
      <path class="cls-2" d="M470.97,416.97h-21.93l-3.44,8.44h-16.49l24.33-56.23h14.57l24.33,56.23h-17.93l-3.44-8.44ZM465.77,404.52l-5.76-14.06-5.76,14.06h11.53Z"/>
    </g>
    <g>
      <path class="cls-2" d="M157.93,445.13h19.79v4.75h-14.48v10.4h14.48v4.75h-14.48v17.35h-5.31v-37.24Z"/>
      <path class="cls-2" d="M183.41,445.13h5.31v32.39h16.71v4.85h-22.02v-37.24Z"/>
      <path class="cls-2" d="M228.28,444.6c5.73,0,10.51,1.82,14.32,5.46,3.81,3.64,5.72,8.21,5.72,13.7s-1.92,10.04-5.77,13.64c-3.85,3.6-8.7,5.4-14.56,5.4s-10.25-1.8-13.98-5.4-5.59-8.11-5.59-13.53,1.88-10.17,5.63-13.81c3.75-3.64,8.49-5.46,14.23-5.46ZM228.49,449.67c-4.25,0-7.74,1.33-10.47,4-2.73,2.67-4.1,6.07-4.1,10.21s1.37,7.36,4.11,10.02c2.74,2.67,6.17,4,10.3,4s7.59-1.36,10.36-4.08c2.77-2.72,4.15-6.1,4.15-10.16s-1.38-7.27-4.15-9.96c-2.77-2.69-6.17-4.04-10.2-4.04Z"/>
      <path class="cls-2" d="M255.02,482.38v-37.24h9.3c3.75,0,6.73.93,8.94,2.8,2.2,1.87,3.31,4.39,3.31,7.57,0,2.17-.54,4.04-1.62,5.63-1.08,1.58-2.63,2.76-4.65,3.55,1.18.78,2.35,1.85,3.48,3.2,1.13,1.35,2.73,3.71,4.78,7.07,1.29,2.11,2.33,3.71,3.11,4.77l1.96,2.67h-6.32l-1.62-2.45c-.05-.09-.16-.24-.32-.45l-1.03-1.47-1.64-2.72-1.78-2.91c-1.1-1.53-2.1-2.75-3.02-3.65-.91-.9-1.74-1.56-2.47-1.96s-1.97-.6-3.71-.6h-1.38v16.21h-5.31ZM261.92,449.67h-1.59v11.76h2.02c2.69,0,4.54-.23,5.54-.69,1-.46,1.78-1.16,2.34-2.09.56-.93.84-2,.84-3.19s-.31-2.23-.93-3.18c-.62-.95-1.49-1.62-2.62-2.01-1.13-.39-2.99-.59-5.59-.59Z"/>
      <path class="cls-2" d="M287.77,445.13h5.31v37.24h-5.31v-37.24Z"/>
      <path class="cls-2" d="M310.5,466.77l-4.04-2.46c-2.53-1.55-4.33-3.08-5.41-4.58-1.07-1.5-1.61-3.23-1.61-5.19,0-2.93,1.01-5.31,3.04-7.14,2.03-1.83,4.66-2.75,7.9-2.75s5.94.87,8.53,2.62v6.05c-2.67-2.58-5.55-3.87-8.63-3.87-1.74,0-3.16.4-4.28,1.21-1.12.81-1.67,1.84-1.67,3.09,0,1.12.41,2.16,1.23,3.13.82.97,2.14,2,3.96,3.07l4.06,2.41c4.53,2.71,6.79,6.17,6.79,10.36,0,2.98-1,5.41-2.99,7.28-1.99,1.87-4.58,2.8-7.77,2.8-3.67,0-7-1.13-10.01-3.39v-6.77c2.87,3.65,6.19,5.47,9.96,5.47,1.67,0,3.05-.46,4.16-1.39,1.11-.93,1.66-2.09,1.66-3.49,0-2.27-1.63-4.42-4.89-6.45Z"/>
      <path class="cls-2" d="M323.07,445.08h31v4.75h-12.94v32.55h-5.34v-32.55h-12.72v-4.75Z"/>
      <path class="cls-2" d="M365.49,444.92h3.73l16.64,37.45h-5.44l-4.95-11.04h-15.83l-4.64,11.04h-5.46l15.94-37.45ZM373.29,466.59l-5.99-13.49-5.55,13.49h11.54Z"/>
      <path class="cls-2" d="M399.11,466.77l-4.04-2.46c-2.53-1.55-4.33-3.08-5.41-4.58-1.07-1.5-1.61-3.23-1.61-5.19,0-2.93,1.01-5.31,3.04-7.14,2.03-1.83,4.66-2.75,7.9-2.75s5.94.87,8.53,2.62v6.05c-2.67-2.58-5.55-3.87-8.63-3.87-1.74,0-3.16.4-4.28,1.21-1.12.81-1.67,1.84-1.67,3.09,0,1.12.41,2.16,1.23,3.13.82.97,2.14,2,3.96,3.07l4.06,2.41c4.53,2.71,6.79,6.17,6.79,10.36,0,2.98-1,5.41-2.99,7.28-1.99,1.87-4.58,2.8-7.77,2.8-3.67,0-7-1.13-10.01-3.39v-6.77c2.87,3.65,6.19,5.47,9.96,5.47,1.67,0,3.05-.46,4.16-1.39,1.11-.93,1.66-2.09,1.66-3.49,0-2.27-1.63-4.42-4.89-6.45Z"/>
    </g>
  </g>
</svg>