<?xml version="1.0" encoding="UTF-8"?>
<svg id="LOGO_HORIZONTAL" data-name="LOGO HORIZONTAL" xmlns="http://www.w3.org/2000/svg" viewBox="0 0 841.89 425.2">
  <defs>
    <style>
      .cls-1 {
        fill: #fff;
      }
    </style>
  </defs>
  <g>
    <path class="cls-1" d="M375.04,170.06h-16.78v-13.64h51.94v13.64h-16.78v42.51h-18.38v-42.51Z"/>
    <path class="cls-1" d="M470.53,212.57h-20.94c-4.64-11.47-6.39-19.25-13.03-19.25h-2.4v19.25h-17.58v-56.14h22.78c16.54,0,23.97,6.82,23.97,17.16,0,6.34-3.04,11.55-9.75,14.28,7.51,3.29,10.31,11.87,16.94,24.7ZM437.36,181.29c5.59,0,7.99-2.49,7.99-6.5s-2.4-6.34-7.59-6.34h-3.6v12.83h3.2Z"/>
    <path class="cls-1" d="M475.31,156.42h18.38v56.14h-18.38v-56.14Z"/>
    <path class="cls-1" d="M504.08,156.42h23.97c17.1,0,24.77,7.54,24.77,19.17s-7.59,19.33-25.17,19.33h-5.2v17.65h-18.38v-56.14ZM526.05,182.09c5.59,0,7.99-2.49,7.99-6.5s-2.4-6.34-7.59-6.34h-4v12.83h3.6Z"/>
    <path class="cls-1" d="M559.61,156.42h18.38v56.14h-18.38v-56.14Z"/>
    <path class="cls-1" d="M624.58,204.14h-21.9l-3.44,8.42h-16.46l24.29-56.14h14.54l24.29,56.14h-17.9l-3.44-8.42ZM619.38,191.71l-5.75-14.04-5.75,14.04h11.51Z"/>
    <path class="cls-1" d="M707.44,156.42v56.14h-14.78l-25.97-29.76v29.76h-15.98v-56.14h15.18l25.57,29.28v-29.28h15.98Z"/>
    <path class="cls-1" d="M754.02,204.14h-21.9l-3.44,8.42h-16.46l24.29-56.14h14.54l24.29,56.14h-17.9l-3.44-8.42ZM748.83,191.71l-5.75-14.04-5.75,14.04h11.51Z"/>
  </g>
  <g>
    <path class="cls-1" d="M374.98,232.26h19.76v4.74h-14.45v10.38h14.45v4.74h-14.45v17.33h-5.3v-37.19Z"/>
    <path class="cls-1" d="M400.42,232.26h5.3v32.34h16.68v4.84h-21.99v-37.19Z"/>
    <path class="cls-1" d="M445.22,231.73c5.72,0,10.49,1.82,14.3,5.46,3.81,3.64,5.71,8.2,5.71,13.68s-1.92,10.02-5.76,13.61c-3.84,3.59-8.69,5.39-14.54,5.39s-10.24-1.8-13.95-5.39c-3.72-3.59-5.58-8.1-5.58-13.51s1.87-10.15,5.62-13.79c3.75-3.64,8.48-5.46,14.21-5.46ZM445.44,236.79c-4.24,0-7.72,1.33-10.45,3.99-2.73,2.66-4.09,6.06-4.09,10.19s1.37,7.35,4.11,10.01c2.74,2.66,6.16,3.99,10.28,3.99s7.58-1.36,10.35-4.07c2.76-2.72,4.15-6.1,4.15-10.14s-1.38-7.25-4.15-9.94c-2.77-2.69-6.16-4.03-10.19-4.03Z"/>
    <path class="cls-1" d="M471.92,269.45v-37.19h9.28c3.75,0,6.72.93,8.92,2.8,2.2,1.86,3.3,4.38,3.3,7.56,0,2.17-.54,4.04-1.62,5.62-1.08,1.58-2.63,2.76-4.64,3.54,1.18.78,2.34,1.85,3.47,3.19,1.13,1.35,2.72,3.7,4.77,7.05,1.29,2.11,2.32,3.7,3.1,4.76l1.96,2.66h-6.31l-1.62-2.45c-.05-.09-.16-.24-.32-.45l-1.03-1.46-1.64-2.72-1.77-2.9c-1.1-1.53-2.1-2.74-3.01-3.65s-1.73-1.55-2.47-1.95c-.73-.4-1.97-.6-3.7-.6h-1.38v16.18h-5.3ZM478.81,236.79h-1.59v11.74h2.02c2.69,0,4.53-.23,5.53-.69,1-.46,1.78-1.16,2.34-2.09.56-.93.83-1.99.83-3.18s-.31-2.23-.93-3.18c-.62-.95-1.49-1.62-2.61-2.01-1.12-.39-2.98-.58-5.58-.58Z"/>
    <path class="cls-1" d="M504.62,232.26h5.3v37.19h-5.3v-37.19Z"/>
    <path class="cls-1" d="M527.32,253.87l-4.03-2.46c-2.53-1.55-4.33-3.07-5.4-4.57-1.07-1.5-1.6-3.22-1.6-5.18,0-2.93,1.01-5.31,3.04-7.13,2.02-1.83,4.65-2.74,7.89-2.74s5.93.87,8.51,2.61v6.04c-2.67-2.58-5.54-3.87-8.62-3.87-1.73,0-3.16.4-4.27,1.21s-1.67,1.83-1.67,3.09c0,1.11.41,2.16,1.23,3.13.82.97,2.14,1.99,3.96,3.06l4.05,2.41c4.52,2.71,6.78,6.16,6.78,10.35,0,2.98-1,5.4-2.98,7.27-1.99,1.86-4.57,2.8-7.76,2.8-3.66,0-6.99-1.13-10-3.39v-6.76c2.86,3.64,6.18,5.46,9.95,5.46,1.66,0,3.05-.46,4.15-1.39,1.1-.93,1.66-2.09,1.66-3.49,0-2.26-1.63-4.41-4.88-6.44Z"/>
    <path class="cls-1" d="M539.86,232.21h30.95v4.74h-12.92v32.5h-5.33v-32.5h-12.7v-4.74Z"/>
    <path class="cls-1" d="M582.22,232.05h3.73l16.61,37.4h-5.43l-4.94-11.02h-15.81l-4.63,11.02h-5.45l15.91-37.4ZM590.01,253.69l-5.98-13.47-5.54,13.47h11.52Z"/>
    <path class="cls-1" d="M615.79,253.87l-4.03-2.46c-2.53-1.55-4.33-3.07-5.4-4.57-1.07-1.5-1.6-3.22-1.6-5.18,0-2.93,1.01-5.31,3.04-7.13,2.02-1.83,4.65-2.74,7.89-2.74s5.93.87,8.51,2.61v6.04c-2.67-2.58-5.54-3.87-8.62-3.87-1.73,0-3.16.4-4.27,1.21-1.11.8-1.67,1.83-1.67,3.09,0,1.11.41,2.16,1.23,3.13.82.97,2.14,1.99,3.96,3.06l4.05,2.41c4.52,2.71,6.78,6.16,6.78,10.35,0,2.98-1,5.4-2.98,7.27-1.99,1.86-4.57,2.8-7.76,2.8-3.66,0-6.99-1.13-10-3.39v-6.76c2.86,3.64,6.18,5.46,9.95,5.46,1.66,0,3.05-.46,4.15-1.39,1.1-.93,1.66-2.09,1.66-3.49,0-2.26-1.63-4.41-4.88-6.44Z"/>
  </g>
  <path class="cls-1" d="M199.32,80.3c-73.24,0-132.62,59.38-132.62,132.62s59.38,132.62,132.62,132.62c23.66,0,45.89-6.2,65.12-17.07-9.5-4-18.28-9.93-25.93-17.61-19.89-19.94-30.75-50.2-29.82-83.04,0-.16.03-.33.07-.49-1.1.85-1.77,2.25-2.3,3.84-.85,2.61-1.61,5.25-2.43,7.88-1.53,4.91-3.17,9.76-4.58,14.7-.71,2.45-1.03,5.02-1.46,7.53-.23,1.35-.13,2.77-.49,4.07-2,7.47-4,14.93-6.2,22.34-.87,2.95-2.07,5.83-3.36,8.62-3.13,6.78-8.17,9.42-15.13,7.6-8.01-2.08-15.33-5.99-22.12-10.68-4.38-3.02-5.22-8.32-4.27-13.47.97-5.33,3.61-9.75,7.32-13.82,6.1-6.71,12.93-12.39,20.27-17.53.97-.67,1.87-1.44,2.74-2.25,5.17-4.87,10.49-9.6,15.39-14.72,2.77-2.9,4.92-6.43,7.24-9.76,1.25-1.79,1.64-3.76.2-5.73-1.54-2.1-3.68-3.53-6.06-2.68-3.4,1.21-7.04,2.54-9.7,4.89-3.73,3.28-7.6,5.94-12.05,8.11-4.33,2.1-8.14,5.32-12.28,7.89-6.7,4.18-13.36,8.48-20.27,12.26-3.64,1.99-7.84,2.84-11.68,4.48-8.24,3.54-16.77,3.91-25.5,3.05-5.55-.54-11.64-5.38-13.31-10.78-2.03-6.55-.54-12.98.36-19.43.36-2.54,1.23-5.01,1.76-7.53.62-3.02,2.3-4.91,5.25-5.5,1.62-.31,3.27-.61,4.92-.77,1.48-.16,3.04.08,4.48-.26,12.24-2.84,24.5-1.82,36.86-1.02,11.96.77,24.06,1.46,35.86-1.79,3.33-.92,6.65-2.28,9.7-3.99,3.17-1.76,3.04-4.96-.15-6.78-1.87-1.05-4-1.76-6.1-2.22-10.95-2.45-21.97-4.1-33.22-4.27-6.5-.1-13.06-.07-19.46-1.05-4.51-.71-9.04-2.53-13.1-4.73-5.89-3.18-7.16-7.02-6.1-13.8.46-3.04.75-6.1.77-9.17.08-7.22,5.69-13.47,12.64-14.26,6.86-.77,12.88,1.3,18.38,5.27,9.16,6.6,18.35,13.18,27.34,20.04,7.24,5.51,14.16,11.45,21.29,17.12,1.17.92,2.58,1.71,3.99,2.05,2.61.64,4.25-1.41,3.18-3.97-.57-1.39-1.46-2.72-2.45-3.87-3.2-3.74-6.76-7.17-9.75-11.09-3.28-4.3-6.12-8.99-9.12-13.52-1.31-1.99-2.31-4.27-3.92-5.96-3.82-4-5.25-9.09-6.74-14.21-.75-2.58-.26-5.19,1.84-6.52,5.61-3.58,10.34-8.81,17.22-10.16,4.74-.92,9.39-.21,13.62,1.81,4.41,2.1,6.79,6.12,6.52,11.29-.41,7.55-.69,15.15-1.67,22.63-1.07,8.09.89,15.36,4.14,22.47.43.9,1.1,1.76,1.82,2.45,2.13,2.03,4.18,1.67,4.91-1.17,1.92-7.45,6.1-13.7,9.53-20.38,2.49-4.86,4.82-9.83,6.84-14.92,2.64-6.66,6.88-12.14,11.19-17.61,1.89-2.4,4.45-3.51,7.47-3.61,5.69-.16,11.32-.39,16.61,2.59,2,1.13,4.4,1.51,6.61,2.25,2.23.75,4.53,1.31,6.63,2.31,3.97,1.89,7.09,4.69,7.47,9.57.41,5.19-1.9,9.27-6.14,11.55-4.68,2.51-9.67,4.76-14.77,6.06-7.75,1.97-14.87,4.73-21.14,9.98-4.1,3.46-8.67,6.38-13.19,9.26-5.42,3.46-9.58,7.86-11.52,14.59,2.17,2.31,4.96,2.51,7.68,1.51,7.07-2.58,14-5.56,21.09-8.11,4.55-1.62,9.24-2.84,13.93-4.02,4.84-1.23,9.81-2.02,14.64-3.36,6.19-1.72,12.42-2.36,18.81-2.43,11.95-.13,15.84,7.89,15.41,18.64-.05,1.02-.61,2.03-.57,3.04.28,7.6-4.14,11.18-10.44,13.15-9.39,2.94-19.02,3.94-28.72,2.67-6.09-.8-12.13-2.31-18.12-3.81-10.08-2.51-20.12-2.9-30.23-.39-1.49.38-2.89,1.17-4.61,1.89,1.79,3.5,4.48,4.35,7.12,5.22,5.56,1.82,11.11,3.64,16.69,5.4,8.99,2.82,17.43,6.99,25.54,11.8,4.73,2.82,9.44,5.92,12.29,11.09,3.04,5.45,1.92,8.88-3.53,11.6-8.39,4.22-16.77,8.45-25.01,12.96-5.73,3.13-15.43,3.4-21.63-2.12-4.14-3.66-4.78-8.42-5.51-13.36-.41-2.87-.79-5.79-1.56-8.57-1.35-4.78-2.99-9.47-4.51-14.21-.74-2.28-1.64-3.64-2.97-4.38.08.3.13.59.11.9-.89,31.05,9.29,59.56,27.9,78.23,8.24,8.27,17.92,14.33,28.39,17.94,36.35-23.66,60.39-64.64,60.39-111.25,0-73.24-59.38-132.62-132.62-132.62Z"/>
</svg>